# xmcd
#
# Track frame offsets: 
#        150
#        18920
#        31902
#
# Disc length: 616 seconds
#
# Revision: 10
# Processed by: cddbd v1.5.2PL0 Copyright (c) Steve Scherf et al.
# Submitted via: ExactAudioCopy v1.0b6
#
DISCID=16026603
DTITLE=David Bowie - Reality [2003 Sony Music (Japan) CD [CD2]]
DYEAR=2003
DGENRE=Rock
TTITLE0=Fly
TTITLE1=Queen Of All The Tarts (Overture)
TTITLE2=Rebel Rebel
EXTD=YEAR: 2003 ID3G: 17
EXTT0=
EXTT1=
EXTT2=
PLAYORDER=
